{"title":"The Kids Are All Right BDRip XviD-DiAMOND","uid":5932733,"size":1485918618,"categoryP":"video","categoryS":"movies","magnet":"?xt=urn:btih:c39d40e51dc1f6a0a1977a277dde99213790ed3b&amp;dn=The+Kids+Are+All+Right+BDRip+XviD-DiAMOND&amp;tr=udp%3A%2F%2Ftracker.openbittorrent.com%3A80&amp;tr=udp%3A%2F%2Fopen.demonii.com%3A1337&amp;tr=udp%3A%2F%2Ftracker.coppersurfer.tk%3A6969&amp;tr=udp%3A%2F%2Fexodus.desync.com%3A6969","seeders":1,"leechers":0,"uploader":"IwannaFan2","files":5,"time":1288836423,"description":"Filename:\nThe Kids Are All Right BDRip XviD-DiAMOND\n &lt;a href=&quot;\nhttp://www.imdb.com/title/tt0842926/&quot; rel=&quot;nofollow&quot; target=&quot;_NEW&quot;&gt;\nhttp://www.imdb.com/title/tt0842926/&lt;/a&gt;\n\nVideo\nID                               : 0\nFormat                           : MPEG-4 Visual\nFormat profile                   : AdvancedSimple@L5\nFormat settings, BVOP            : Yes\nFormat settings, QPel            : No\nFormat settings, GMC             : No warppoints\nFormat settings, Matrix          : Default (MPEG)\nMuxing mode                      : Packed bitstream\nCodec ID                         : XVID\nCodec ID/Hint                    : XviD\nDuration                         : 1h 46mn\nBit rate                         : 1 385 Kbps\nWidth                            : 640 pixels\nHeight                           : 352 pixels\nDisplay aspect ratio             : 16:9\nFrame rate                       : 23.976 fps\nResolution                       : 24 bits\nColorimetry                      : 4:2:0\nScan type                        : Progressive\nBits/(Pixel*Frame)               : 0.256\nStream size                      : 1.03 GiB (75%)\nWriting library                  : XviD 1.2.1 (UTC 2008-12-04)\n\nAudio\nID                               : 1\nFormat                           : AC-3\nFormat/Info                      : Audio Coding 3\nCodec ID                         : 2000\nDuration                         : 1h 46mn\nBit rate mode                    : Constant\nBit rate                         : 448 Kbps\nChannel(s)                       : 6 channels\nChannel positions                : Front: L C R, Surround: L R, LFE\nSampling rate                    : 48.0 KHz\nStream size                      : 340 MiB (24%)\nAlignment                        : Split accross interleaves\nInterleave, duration             : 42 ms (1.00 video frame)\nInterleave, preload duration     : 500 ms\n\nTHEATRE DATE: 07/30/10\nRELEASE DATE: 11/04/10\nSTORE DATE: 11/16/10\nGENRE: Comedy | Drama\nRUNTiME: 1 hour 46 minutes\nRATiNG: 7.7/10 3,844 votes\nViDEO: 1384 kbps\nAUDiO: 448 kbps 6ch. AC3\nRESOLUTiON: 640x352 1.82:1\n# DiSCS: 1\nSUBS: Eng","torrent":{"xt":"urn:btih:c39d40e51dc1f6a0a1977a277dde99213790ed3b","amp;dn":"The+Kids+Are+All+Right+BDRip+XviD-DiAMOND","amp;tr":["udp%3A%2F%2Ftracker.openbittorrent.com%3A80","udp%3A%2F%2Fopen.demonii.com%3A1337","udp%3A%2F%2Ftracker.coppersurfer.tk%3A6969","udp%3A%2F%2Fexodus.desync.com%3A6969"],"infoHash":"c39d40e51dc1f6a0a1977a277dde99213790ed3b","infoHashBuffer":{"type":"Buffer","data":[195,157,64,229,29,193,246,160,161,151,122,39,125,222,153,33,55,144,237,59]},"announce":[],"urlList":[]}}